<?xml version="1.0" encoding="UTF-8"?>
<!DOCTYPE svg PUBLIC "-//W3C//DTD SVG 1.1//EN" "http://www.w3.org/Graphics/SVG/1.1/DTD/svg11.dtd">
<!-- Creator: CorelDRAW X7 -->
<svg xmlns="http://www.w3.org/2000/svg" xml:space="preserve" width="594px" height="108px" version="1.1" style="shape-rendering:geometricPrecision; text-rendering:geometricPrecision; image-rendering:optimizeQuality; fill-rule:evenodd; clip-rule:evenodd"
viewBox="0 0 203912 37242"
 xmlns:xlink="http://www.w3.org/1999/xlink">
 <defs>
  <style type="text/css">
   <![CDATA[
    .fil0 {fill:#FAB400}
    .fil1 {fill:white}
   ]]>
  </style>
 </defs>
 <g id="Layer_x0020_1">
  <metadata id="CorelCorpID_0Corel-Layer"/>
  <g id="_889336944">
   <g>
    <path class="fil0" d="M45653 18483c-7074,-7850 -15655,-18483 -27173,-18483 -10206,0 -18480,8274 -18480,18480 0,10206 8274,18480 18480,18480 11471,0 20207,-10554 27173,-18477zm-27002 -10476c5784,0 10473,4689 10473,10473 0,5785 -4689,10474 -10473,10474 -5785,0 -10474,-4689 -10474,-10474 0,-5784 4689,-10473 10474,-10473z"/>
    <path class="fil1" d="M46100 26131c-1885,2008 -3852,3957 -5874,5826 3426,3209 7909,4983 12617,4983 10201,0 18471,-8269 18471,-18469 0,-10201 -8270,-18471 -18471,-18471 -4725,0 -9224,1790 -12655,5019 1955,1941 3897,3899 5798,5893 1894,-1741 4358,-2704 6943,-2704 5668,0 10262,4596 10262,10263 0,5667 -4594,10262 -10262,10262 -2532,0 -4949,-924 -6829,-2602z"/>
   </g>
   <path class="fil1" d="M79255 16640l11916 0 0 -2772 -8092 0 0 -4348 6980 0 0 -2747 -6980 0 0 -3761 7897 0 0 -2723 -11721 0 0 16351zm78562 -15754c-2250,-1109 -4929,-1155 -7216,-125 -1898,855 -3403,2398 -4241,4300 -473,1072 -713,2228 -713,3400 0,1320 305,2615 898,3794 745,1478 1915,2732 3355,3550 2326,1321 5206,1455 7644,360 1770,-795 3197,-2187 4067,-3918 591,-1177 895,-2469 895,-3786 0,-874 -134,-1744 -400,-2577 -694,-2164 -2249,-3992 -4289,-4998zm-5722 11815c-1002,-475 -1846,-1273 -2311,-2286 -281,-613 -425,-1279 -425,-1954 0,-1943 1197,-3625 2984,-4349 1215,-492 2557,-448 3738,121 1653,794 2712,2380 2712,4228 0,677 -144,1344 -428,1959 -476,1037 -1359,1855 -2394,2321 -1243,559 -2644,544 -3876,-40zm-31973 -11815c-2250,-1109 -4930,-1155 -7217,-125 -1897,855 -3403,2398 -4241,4300 -472,1072 -713,2228 -713,3400 0,1320 305,2615 899,3794 745,1478 1914,2732 3355,3550 2325,1321 5205,1455 7644,360 1770,-795 3196,-2187 4067,-3918 591,-1177 895,-2469 895,-3786 0,-874 -134,-1744 -401,-2577 -693,-2164 -2248,-3992 -4288,-4998zm-5722 11815c-1002,-475 -1847,-1273 -2311,-2286 -281,-613 -425,-1279 -425,-1954 0,-1943 1196,-3625 2984,-4349 1215,-492 2556,-448 3738,121 1652,794 2712,2380 2712,4228 0,677 -145,1344 -428,1959 -477,1037 -1359,1855 -2394,2321 -1244,559 -2644,544 -3876,-40zm-7291 1924c-924,-855 -1823,-1745 -2685,-2663 -859,767 -1964,1189 -3121,1189 -2590,0 -4690,-2099 -4690,-4690 0,-2590 2100,-4691 4690,-4691 1182,0 2308,441 3173,1237 869,-912 1757,-1807 2651,-2694 -1569,-1476 -3625,-2294 -5785,-2294 -4662,0 -8441,3780 -8441,8442 0,4662 3779,8442 8441,8442 2152,0 4201,-812 5767,-2278zm33220 2015l3014 0 0 -16351 -3775 0 0 10251 -9219 -10251 -3406 0 0 16351 3775 0 0 -10793 9611 10793zm24352 0l3776 0 0 -10672 5098 6333 5146 -6329 0 10668 3750 0 0 -16351 -3424 0 -5473 6837 -5449 -6837 -3424 0 0 16351zm25391 0l3824 0 0 -7463 6481 -8888 -4524 0 -3859 5549 -3764 -5549 -4569 0 6411 8913 0 7438z"/>
   <g>
    <path class="fil1" d="M131030 36949l3823 0 0 -8179 6676 8179 4964 0 -7237 -8803 5786 -7547 -4244 0 -5945 7790 0 -7790 -3823 0 0 16350zm72173 -12295l0 -3028c-864,-405 -1765,-730 -2693,-955 -920,-223 -1864,-341 -2811,-341 -1580,0 -3168,322 -4446,1300 -1102,844 -1678,1943 -1678,3335 0,1246 391,2336 1287,3211 1166,1137 3338,1994 4851,2524 523,183 1487,527 1897,906 316,290 454,668 454,1094 0,556 -242,988 -720,1272 -556,331 -1321,400 -1955,400 -884,0 -1747,-176 -2577,-475 -1008,-363 -2018,-922 -2944,-1486l0 3286c835,497 1722,887 2658,1149 964,270 1955,396 2957,396 1636,0 3414,-275 4751,-1288 1157,-876 1678,-2056 1678,-3498 0,-824 -147,-1642 -533,-2375 -368,-696 -907,-1242 -1578,-1651 -996,-607 -2306,-1098 -3398,-1502 -244,-90 -495,-176 -730,-273 -585,-218 -1260,-511 -1744,-911 -347,-286 -628,-658 -628,-1125 0,-522 271,-899 720,-1148 548,-305 1291,-369 1906,-369 839,0 1687,171 2486,415 955,291 1892,695 2790,1137zm-13895 10419l0 -6719 -6197 0 0 2772 2300 0 0 2405 -112 45c-405,167 -821,300 -1249,393 -416,90 -840,135 -1265,135 -1445,0 -2788,-400 -3819,-1445 -1038,-1053 -1425,-2417 -1425,-3873 0,-1483 398,-2871 1495,-3918 1117,-1067 2589,-1424 4099,-1424 968,0 1935,168 2866,426 1014,282 1997,683 2940,1150l0 -3265c-954,-459 -1952,-835 -2981,-1084 -1002,-242 -2023,-366 -3053,-366 -2501,0 -4893,613 -6770,2330 -1789,1638 -2543,3745 -2543,6151 0,1172 205,2313 652,3397 432,1050 1062,1973 1885,2756 806,765 1752,1328 2793,1711 1143,420 2349,592 3563,592 1253,0 2505,-158 3700,-546 1129,-366 2169,-918 3121,-1623zm-21083 1876l3013 0 0 -16350 -3775 0 0 10250 -9218 -10250 -3405 0 0 16350 3774 0 0 -10793 9611 10793zm-20617 0l3945 0 0 -16350 -3945 0 0 16350zm-68353 2l7287 0c1581,0 3528,-203 4848,-1160 1154,-836 1574,-2067 1574,-3452 0,-952 -222,-1861 -822,-2616 -630,-794 -1572,-1272 -2523,-1571l-449 -142 429 -194c628,-284 1190,-686 1581,-1262 376,-554 536,-1178 536,-1845 0,-1308 -490,-2343 -1598,-3058 -1353,-872 -3309,-1052 -4877,-1052l-5986 0 0 16352zm6189 -9746l-2341 0 0 -4005 2341 0c617,0 1311,107 1796,515 470,396 627,980 627,1577 0,567 -167,1089 -624,1443 -492,381 -1194,470 -1799,470zm-2341 7047l0 -4421 2578 0c774,0 1751,90 2403,546 586,410 811,1037 811,1738 0,664 -203,1278 -774,1655 -635,419 -1678,482 -2415,482l-2603 0z"/>
    <path class="fil1" d="M124024 21169c-2250,-1109 -4929,-1155 -7216,-125 -1898,855 -3403,2397 -4242,4300 -472,1073 -713,2228 -713,3400 0,1320 305,2615 900,3794 744,1478 1914,2732 3354,3550 2325,1321 5205,1455 7644,360 1770,-796 3197,-2187 4067,-3918 591,-1177 895,-2469 895,-3786 0,-874 -134,-1744 -400,-2576 -693,-2165 -2249,-3993 -4289,-4999zm-5722 11815c-1002,-475 -1846,-1273 -2311,-2286 -281,-614 -425,-1279 -425,-1954 0,-1943 1196,-3625 2984,-4349 1215,-492 2557,-448 3738,121 1652,794 2712,2380 2712,4228 0,677 -144,1344 -427,1959 -477,1037 -1359,1855 -2395,2321 -1244,558 -2644,543 -3876,-40z"/>
    <path class="fil1" d="M106012 21169c-2250,-1109 -4929,-1155 -7216,-125 -1898,855 -3403,2397 -4242,4300 -472,1073 -713,2228 -713,3400 0,1320 305,2615 899,3794 745,1478 1914,2732 3355,3550 2325,1321 5205,1455 7644,360 1770,-796 3196,-2187 4067,-3918 591,-1177 895,-2469 895,-3786 0,-874 -134,-1744 -400,-2576 -694,-2165 -2249,-3993 -4289,-4999zm-5722 11815c-1002,-475 -1847,-1273 -2311,-2286 -281,-614 -425,-1279 -425,-1954 0,-1943 1196,-3625 2984,-4349 1215,-492 2557,-448 3738,121 1652,794 2712,2380 2712,4228 0,677 -144,1344 -428,1959 -476,1037 -1359,1855 -2394,2321 -1244,558 -2644,543 -3876,-40z"/>
   </g>
  </g>
 </g>
</svg>
